<?xml version="1.0" standalone="no"?>
<!DOCTYPE svg PUBLIC "-//W3C//DTD SVG 1.0//EN" "http://www.w3.org/TR/2001/REC-SVG-20010904/DTD/svg10.dtd">
<svg xmlns="http://www.w3.org/2000/svg" xmlns:xlink="http://www.w3.org/1999/xlink" id="body_1" width="2944" height="952">

<g transform="matrix(1.3333334 0 0 1.3333334 0 0)">
	<g transform="matrix(0.1 0 -0 -0.1 0 714)">
        <path d="M1045 7133C 724 7092 501 6992 324 6809C 177 6656 90 6479 28 6205L28 6205L5 6105L2 3808L0 1510L945 1510L1890 1510L1890 754L1890 -1L2208 3C 2559 7 2579 10 2720 77C 2821 126 2908 212 2955 312C 3017 442 3020 470 3020 1013L3020 1013L3020 1502L3041 1507C 3084 1519 3246 1602 3328 1656C 3439 1728 3588 1842 3719 1954C 3859 2073 4215 2430 4319 2555C 4443 2704 4584 2923 4537 2893C 4531 2889 4498 2867 4466 2846C 4384 2792 4262 2737 4144 2701C 3938 2638 4001 2640 2504 2640L2504 2640L1140 2640L1140 4890L1140 7140L1108 7139C 1090 7138 1062 7135 1045 7133z" stroke="none" fill="#000000" fill-rule="nonzero" />
        <path d="M1902 4548L1905 2835L2125 2826C 2390 2815 2968 2833 2987 2853C 3013 2879 3022 3150 3027 4133L3027 4133L3032 5131L3649 5127C 4316 5124 4324 5123 4527 5064C 4854 4969 5103 4766 5214 4503C 5375 4120 5294 3603 4990 3073C 4671 2519 4185 2022 3550 1602L3550 1602L3395 1499L3535 1505C 4238 1534 4563 1583 4878 1706C 5709 2030 6279 2786 6406 3730C 6429 3899 6428 4194 6406 4363C 6347 4800 6170 5202 5902 5505C 5602 5844 5156 6088 4640 6194C 4343 6255 4381 6253 3087 6257L3087 6257L1900 6261L1902 4548z" stroke="none" fill="#000000" fill-rule="nonzero" />
        <path d="M15654 5514C 15682 5405 15685 5356 15685 5065C 15684 4689 15673 4579 15550 3675C 15444 2893 15436 2766 15490 2661C 15540 2562 15632 2526 15835 2525L15835 2525L15975 2525L15972 2840C 15968 3268 15986 3507 16075 4200C 16122 4564 16154 4834 16166 4962L16166 4962L16172 5040L16249 5064C 16554 5160 16822 5084 16930 4870C 17007 4715 17001 4479 16913 4307C 16857 4194 16759 4078 16660 4004C 16554 3925 16400 3873 16247 3863L16247 3863L16149 3857L16156 3786C 16160 3747 16164 3713 16166 3711C 16175 3701 16354 3691 16430 3696C 16609 3708 16749 3744 16890 3815C 17101 3921 17240 4064 17344 4281C 17472 4546 17470 4855 17338 5078C 17320 5109 17271 5169 17229 5211C 17170 5271 17136 5296 17069 5328C 16945 5388 16850 5404 16665 5397C 16474 5389 16337 5357 16190 5285L16190 5285L16124 5253L16095 5302C 16020 5427 15886 5504 15691 5535L15691 5535L15647 5542L15654 5514z" stroke="none" fill="#000000" fill-rule="nonzero" />
        <path d="M8396 5414C 8401 5393 8404 5265 8403 5130C 8402 4797 8372 4453 8295 3880C 8209 3241 8189 3025 8207 2910L8207 2910L8215 2855L8159 2802C 8092 2741 8047 2674 8020 2599C 8010 2569 8003 2544 8004 2542C 8006 2541 8060 2549 8125 2560C 8414 2609 8760 2609 9200 2559C 9306 2547 9422 2540 9472 2542C 9547 2546 9568 2551 9633 2583C 9747 2639 9833 2745 9880 2885C 9903 2955 9931 3090 9921 3090C 9918 3090 9863 3077 9800 3061C 9581 3006 9292 2974 8910 2964L8910 2964L8674 2957L8682 3076C 8698 3341 8734 3649 8820 4250C 8901 4816 8913 4931 8908 5080C 8903 5216 8885 5277 8833 5332C 8779 5388 8637 5433 8472 5446L8472 5446L8389 5453L8396 5414z" stroke="none" fill="#000000" fill-rule="nonzero" />
        <path d="M14380 4714C 14380 4709 14373 4660 14365 4605C 14326 4345 14179 3901 13937 3312C 13887 3190 13843 3093 13839 3097C 13832 3105 13806 3379 13770 3845C 13739 4238 13712 4394 13655 4526C 13582 4692 13441 4722 13191 4624C 13155 4609 13121 4594 13117 4590C 13112 4586 13120 4560 13133 4533C 13166 4469 13230 4285 13230 4256C 13230 4234 13135 3946 13070 3770C 13021 3636 12797 3079 12794 3083C 12789 3088 12761 3382 12740 3650C 12697 4197 12676 4349 12624 4488C 12574 4621 12520 4667 12403 4677C 12326 4683 12248 4666 12133 4619L12133 4619L12062 4589L12100 4507C 12191 4313 12259 3996 12350 3340C 12426 2797 12467 2577 12497 2555C 12540 2522 12694 2523 12784 2557L12784 2557L12834 2575L12915 2765C 13056 3095 13332 3682 13341 3672C 13344 3668 13370 3503 13398 3305C 13426 3107 13466 2860 13486 2757C 13518 2591 13525 2567 13546 2553C 13598 2520 13771 2527 13854 2566C 13876 2577 13891 2595 13904 2628C 13944 2725 14043 2936 14208 3275C 14539 3956 14640 4205 14656 4381C 14662 4442 14660 4455 14636 4504C 14607 4563 14549 4621 14462 4677C 14402 4716 14380 4726 14380 4714z" stroke="none" fill="#000000" fill-rule="nonzero" />
        <path d="M21800 4688C 21800 4588 21732 4316 21635 4031C 21557 3800 21490 3624 21362 3310L21362 3310L21265 3075L21258 3125C 21254 3153 21240 3315 21225 3485C 21176 4085 21168 4166 21150 4275C 21118 4459 21062 4596 21000 4640C 20923 4695 20783 4689 20621 4624L20621 4624L20532 4589L20570 4507C 20591 4462 20620 4386 20635 4338L20635 4338L20662 4251L20620 4123C 20514 3804 20233 3083 20219 3097C 20215 3101 20200 3245 20186 3415C 20113 4281 20111 4293 20060 4455C 20025 4563 19983 4626 19926 4654C 19872 4680 19778 4686 19702 4666C 19636 4649 19511 4603 19497 4590C 19492 4586 19502 4556 19518 4524C 19611 4339 19677 4036 19776 3340C 19831 2949 19857 2787 19887 2647C 19909 2542 19919 2535 20060 2536C 20141 2536 20176 2541 20213 2556L20213 2556L20262 2576L20324 2726C 20434 2988 20758 3685 20766 3677C 20768 3675 20790 3532 20815 3359C 20876 2933 20928 2635 20950 2582C 20964 2550 21018 2530 21093 2530C 21158 2530 21262 2552 21293 2573C 21302 2580 21348 2668 21394 2770C 21439 2872 21551 3108 21642 3295C 21984 3996 22080 4239 22080 4403C 22080 4490 22060 4529 21980 4604C 21925 4654 21828 4720 21808 4720C 21803 4720 21800 4705 21800 4688z" stroke="none" fill="#000000" fill-rule="nonzero" />
        <path d="M10795 4676C 10593 4610 10428 4479 10294 4279C 10148 4060 10075 3828 10063 3540C 10047 3147 10148 2871 10376 2690C 10520 2576 10653 2530 10841 2530C 11095 2530 11313 2613 11488 2775C 11672 2945 11804 3199 11872 3510C 11892 3603 11894 3642 11894 3850C 11894 4061 11892 4093 11872 4165C 11810 4388 11672 4563 11517 4616C 11450 4639 11320 4639 11225 4616C 11187 4606 11105 4574 11043 4544C 10956 4501 10914 4473 10857 4420C 10741 4312 10651 4183 10584 4030C 10544 3940 10541 3956 10576 4076C 10635 4282 10763 4467 10939 4602C 10976 4630 10976 4649 10938 4674C 10898 4700 10867 4700 10795 4676zM11269 4350C 11389 4289 11442 4125 11443 3810C 11444 3612 11434 3524 11393 3365C 11342 3167 11267 3013 11173 2910C 11111 2843 11044 2804 10967 2792C 10733 2755 10610 2914 10579 3293C 10556 3569 10610 3808 10747 4045C 10841 4208 10940 4309 11045 4350C 11114 4376 11218 4376 11269 4350z" stroke="none" fill="#000000" fill-rule="nonzero" />
        <path d="M18185 4676C 17983 4610 17818 4479 17684 4279C 17538 4060 17465 3828 17453 3540C 17437 3145 17541 2866 17771 2685C 17913 2575 18045 2530 18231 2530C 18485 2530 18703 2613 18878 2775C 19062 2945 19194 3199 19262 3510C 19282 3603 19284 3642 19284 3850C 19284 4061 19282 4093 19262 4165C 19200 4388 19062 4563 18907 4616C 18840 4639 18710 4639 18615 4616C 18577 4606 18495 4574 18433 4544C 18346 4501 18304 4473 18247 4420C 18131 4312 18041 4183 17974 4030C 17934 3940 17931 3956 17966 4076C 18025 4282 18153 4467 18329 4602C 18366 4630 18366 4649 18328 4674C 18288 4700 18257 4700 18185 4676zM18659 4350C 18779 4289 18832 4125 18833 3810C 18834 3556 18803 3379 18722 3177C 18673 3057 18629 2982 18563 2910C 18501 2843 18434 2804 18357 2792C 18163 2762 18042 2872 17991 3125C 17925 3457 17974 3764 18137 4045C 18231 4208 18330 4309 18435 4350C 18504 4376 18608 4376 18659 4350z" stroke="none" fill="#000000" fill-rule="nonzero" />
	</g>
</g>
</svg>